PathFileType   4   (X/Y/Z)
DataRate	CameraRate	NumFrames	NumMarkers	Units	OrigDataRate	OrigDataStartFrame	OrigNumFrames
120.0	120.0	4	37	mm	120.0	82	108
Frame#	Time	midhip	hip_r	hip_l	knee_r	knee_l	ankle_r	ankle_l	midasis	asis_r	asis_l	psis_r	psis_l	epicondLat_r	epicondLat_l	epicondMed_r	epicondMed_l	malleolusLat_r	malleolusLat_l	malleolusMedv_r	malleolusMedv_l	neck	subclavicle_r	subclavicle_l	sternalnotch	xyphoidprocess	thighwand_r	thighwand_l	upperleg1_r	upperleg1_l	upperleg2_r	upperleg2_l	shankwand_r	shankwand_l	lowerleg1_r	lowerleg1_l	toe_r	toe_l
 	 	X1	Y1	Z1	X2	Y2	Z2	X3	Y3	Z3	X4	Y4	Z4	X5	Y5	Z5	X6	Y6	Z6	X7	Y7	Z7	X8	Y8	Z8	X9	Y9	Z9	X10	Y10	Z10	X11	Y11	Z11	X12	Y12	Z12	X13	Y13	Z13	X14	Y14	Z14	X15	Y15	Z15	X16	Y16	Z16	X17	Y17	Z17	X18	Y18	Z18	X19	Y19	Z19	X20	Y20	Z20	X21	Y21	Z21	X22	Y22	Z22	X23	Y23	Z23	X24	Y24	Z24	X25	Y25	Z25	X26	Y26	Z26	X27	Y27	Z27	X28	Y28	Z28	X29	Y29	Z29	X30	Y30	Z30	X31	Y31	Z31	X32	Y32	Z32	X33	Y33	Z33	X34	Y34	Z34	X35	Y35	Z35	X36	Y36	Z36	X37	Y37	Z37

	82	0.76667	1470.763	896.024	-186.225	1462.284	873.993	-116.570	1473.811	881.849	-266.351	1633.525	487.463	-79.131	1427.344	468.493	-221.637	1488.421	119.469	-76.717	1359.163	78.357	-172.711	1557.330	961.100	-180.227	1548.437	955.040	-64.675	1566.222	967.160	-295.779	1370.652	1004.937	-152.514	1381.045	1010.549	-237.085	1636.536	494.416	-21.123	1437.206	461.252	-278.332	1640.103	473.980	-132.474	1405.599	458.900	-172.984	1472.906	125.825	-40.401	1343.290	76.669	-208.295	1502.860	128.432	-103.305	1364.912	96.321	-148.086	1367.256	1423.769	-179.340	1493.308	1356.986	-116.637	1508.100	1359.566	-222.854	1482.982	1364.687	-169.048	1575.654	1206.941	-171.903	1638.774	596.497	52.671	1583.016	531.644	-217.190	1633.868	662.712	-14.449	1526.086	591.371	-269.346	1667.781	583.054	-33.296	1494.315	510.298	-262.220	1530.320	246.780	46.437	1394.015	197.136	-306.825	1514.935	216.712	-26.592	1366.999	172.427	-234.302	1585.591	56.340	-51.559	1476.785	39.777	-182.314
	83	0.77500	1482.622	895.712	-185.793	1474.238	873.724	-115.722	1485.197	881.046	-265.573	1649.797	488.399	-79.943	1429.420	469.083	-222.310	1525.659	112.055	-77.415	1359.324	79.377	-172.757	1568.865	960.792	-180.053	1560.431	955.156	-64.722	1577.299	966.427	-295.383	1382.219	1004.226	-151.610	1392.074	1009.769	-235.924	1652.876	495.190	-21.920	1439.787	461.737	-278.901	1655.371	474.599	-132.875	1407.092	461.706	-173.019	1509.871	117.507	-41.069	1343.314	77.739	-208.281	1539.201	121.812	-103.959	1365.516	97.304	-148.348	1379.317	1423.210	-179.197	1505.214	1356.352	-116.864	1520.042	1359.068	-222.660	1495.066	1364.132	-169.261	1587.512	1206.345	-172.073	1654.006	597.275	51.881	1586.497	529.294	-215.954	1647.646	663.349	-14.785	1531.890	590.584	-269.094	1682.511	583.937	-33.959	1497.961	510.029	-261.629	1560.524	241.719	45.751	1394.372	198.069	-307.172	1546.133	210.283	-27.450	1367.537	173.608	-234.602	1626.449	55.082	-53.418	1476.650	39.840	-182.572
	84	0.78333	1494.188	894.845	-185.252	1486.268	873.153	-114.795	1496.611	879.948	-264.714	1665.654	488.933	-80.793	1431.886	469.609	-222.909	1563.081	105.288	-78.423	1359.567	80.373	-172.750	1580.419	960.218	-179.823	1572.475	954.999	-64.675	1588.363	965.437	-294.972	1393.758	1003.219	-150.688	1403.097	1008.643	-234.817	1668.640	495.465	-22.735	1442.786	462.137	-279.384	1670.819	475.311	-133.978	1408.836	462.618	-173.848	1547.076	109.792	-42.043	1343.427	78.801	-208.218	1575.874	115.687	-104.945	1366.177	98.126	-148.509	1391.487	1422.492	-179.399	1517.074	1355.225	-116.710	1532.457	1358.863	-223.120	1507.163	1363.274	-169.490	1599.788	1205.765	-173.169	1668.481	597.422	51.093	1590.127	527.068	-214.601	1661.623	663.681	-15.481	1537.037	589.812	-268.380	1697.028	584.660	-34.762	1501.388	509.117	-261.305	1590.755	236.870	44.862	1394.941	198.960	-307.485	1577.907	204.019	-28.425	1368.225	174.750	-234.489	1667.160	54.559	-55.364	1476.580	39.905	-182.782
	85	0.79167	1506.017	893.950	-184.451	1498.348	872.280	-113.831	1508.054	878.558	-263.816	1681.115	489.068	-81.661	1434.832	470.046	-223.414	1600.546	99.293	-79.723	1359.885	81.322	-172.679	1591.986	959.369	-179.565	1584.543	954.555	-64.547	1599.429	964.184	-294.582	1405.250	1001.919	-149.751	1414.158	1007.178	-233.787	1683.850	495.251	-23.553	1446.255	462.425	-279.765	1683.496	475.574	-135.310	1410.675	463.258	-174.683	1584.390	102.813	-43.301	1343.639	79.831	-208.103	1612.651	110.404	-106.216	1366.426	99.168	-148.432	1403.579	1421.700	-179.794	1529.045	1353.797	-116.769	1545.077	1357.853	-223.587	1519.313	1362.108	-169.721	1611.826	1204.423	-173.640	1682.239	596.953	50.332	1593.986	524.923	-213.216	1674.725	663.505	-16.125	1541.810	588.839	-267.357	1710.108	584.640	-35.865	1504.801	508.663	-261.012	1620.952	232.314	43.785	1395.788	199.753	-307.738	1610.190	198.555	-29.515	1369.217	175.838	-234.477	1707.584	54.807	-57.438	1476.578	39.956	-182.927
